<svg width="72" height="68" viewBox="0 0 72 68" fill="none" xmlns="http://www.w3.org/2000/svg">
<rect x="0.5" y="0.5" width="71" height="67" rx="5.5" fill="white"/>
<rect x="0.5" y="0.5" width="71" height="67" rx="5.5" stroke="#EBE9F1"/>
<g clip-path="url(#clip0_1885_4529)">
<path d="M54 34.1094C54 24.1689 45.9405 16.1094 36 16.1094C26.0595 16.1094 18 24.1689 18 34.1094C18 43.0944 24.582 50.5404 33.1875 51.8904V39.3129H28.617V34.1079H33.1875V30.1449C33.1875 25.6344 35.8755 23.1414 39.987 23.1414C41.955 23.1414 44.016 23.4939 44.016 23.4939V27.9234H41.745C39.5085 27.9234 38.811 29.3109 38.811 30.7344V34.1094H43.803L43.005 39.3144H38.811V51.8919C47.418 50.5404 54 43.0929 54 34.1094Z" fill="#1877F2"/>
</g>
<defs>
<clipPath id="clip0_1885_4529">
<rect width="36" height="36" fill="white" transform="translate(18 16)"/>
</clipPath>
</defs>
</svg>
