<svg width="72" height="68" viewBox="0 0 72 68" fill="none" xmlns="http://www.w3.org/2000/svg">
<rect x="0.5" y="0.5" width="71" height="67" rx="5.5" fill="white"/>
<rect x="0.5" y="0.5" width="71" height="67" rx="5.5" stroke="#EBE9F1"/>
<g clip-path="url(#clip0_1885_4530)">
<path d="M53.6173 34.405C53.6173 33.22 53.5123 32.095 53.3323 31H36.3823V37.765H46.0873C45.6523 39.985 44.3773 41.86 42.4873 43.135V47.635H48.2773C51.6673 44.5 53.6173 39.88 53.6173 34.405Z" fill="#4285F4"/>
<path d="M36.3824 51.9996C41.2424 51.9996 45.3074 50.3796 48.2774 47.6346L42.4874 43.1346C40.8674 44.2146 38.8124 44.8746 36.3824 44.8746C31.6874 44.8746 27.7124 41.7096 26.2874 37.4346H20.3174V42.0696C23.2724 47.9496 29.3474 51.9996 36.3824 51.9996Z" fill="#34A853"/>
<path d="M26.2873 37.4347C25.9123 36.3547 25.7173 35.1997 25.7173 33.9997C25.7173 32.7997 25.9273 31.6447 26.2873 30.5647V25.9297H20.3173C19.0873 28.3597 18.3823 31.0897 18.3823 33.9997C18.3823 36.9097 19.0873 39.6397 20.3173 42.0697L26.2873 37.4347Z" fill="#FBBC05"/>
<path d="M36.3824 23.125C39.0374 23.125 41.4074 24.04 43.2824 25.825L48.4124 20.695C45.3074 17.785 41.2424 16 36.3824 16C29.3474 16 23.2724 20.05 20.3174 25.93L26.2874 30.565C27.7124 26.29 31.6874 23.125 36.3824 23.125Z" fill="#EA4335"/>
</g>
<defs>
<clipPath id="clip0_1885_4530">
<rect width="36" height="36" fill="white" transform="translate(18 16)"/>
</clipPath>
</defs>
</svg>
