<svg width="72" height="68" viewBox="0 0 72 68" fill="none" xmlns="http://www.w3.org/2000/svg">
<rect x="0.5" y="0.5" width="71" height="67" rx="5.5" fill="white"/>
<rect x="0.5" y="0.5" width="71" height="67" rx="5.5" stroke="#EBE9F1"/>
<g clip-path="url(#clip0_1885_4531)">
<path d="M48.6705 46.678H43.3395V38.3245C43.3395 36.3325 43.299 33.769 40.5615 33.769C37.782 33.769 37.3575 35.9365 37.3575 38.1775V46.678H32.0265V29.5H37.1475V31.8415H37.2165C37.932 30.4915 39.672 29.0665 42.2715 29.0665C47.673 29.0665 48.672 32.6215 48.672 37.249V46.678H48.6705ZM26.0055 27.1495C24.2895 27.1495 22.911 25.7605 22.911 24.052C22.911 22.345 24.291 20.9575 26.0055 20.9575C27.7155 20.9575 29.1015 22.345 29.1015 24.052C29.1015 25.7605 27.714 27.1495 26.0055 27.1495ZM28.6785 46.678H23.3325V29.5H28.6785V46.678ZM51.3375 16H20.6565C19.188 16 18 17.161 18 18.5935V49.4065C18 50.8405 19.188 52 20.6565 52H51.333C52.8 52 54 50.8405 54 49.4065V18.5935C54 17.161 52.8 16 51.333 16H51.3375Z" fill="#0A66C2"/>
</g>
<defs>
<clipPath id="clip0_1885_4531">
<rect width="36" height="36" fill="white" transform="translate(18 16)"/>
</clipPath>
</defs>
</svg>
